<svg xmlns="http://www.w3.org/2000/svg" xmlns:xlink="http://www.w3.org/1999/xlink" fill="#fff" version="1.1" x="0px" y="0px" viewBox="0 0 64 80" style="enable-background:new 0 0 35 35;" xml:space="preserve"><g><g><g><path d="M31.98,52.5c-0.11,0-0.23-0.02-0.33-0.06c-6.75-2.53-13.83-3.81-21.04-3.81H6.85c-0.54,0-0.97-0.43-0.97-0.97V5.71     c0-0.54,0.43-0.97,0.97-0.97h3.24c7.55,0,15.11,1.75,21.9,5.05c6.81-3.31,14.36-5.05,21.9-5.05h3.26c0.54,0,0.97,0.43,0.97,0.97     v41.95c0,0.54-0.43,0.97-0.97,0.97h-3.77c-7.2,0-14.27,1.28-21.02,3.8C32.24,52.48,32.11,52.5,31.98,52.5z M7.82,46.69h2.79     c7.32,0,14.52,1.28,21.38,3.81c6.89-2.53,14.07-3.81,21.38-3.81h2.8V6.68h-2.29c-7.4,0-14.82,1.75-21.44,5.05     c-0.27,0.14-0.62,0.15-0.89,0.01c-6.63-3.31-14.05-5.06-21.47-5.06H7.82V46.69z"/></g><g><path d="M31.99,52.51c-0.54,0-0.97-0.43-0.97-0.97V10.88c0-0.54,0.43-0.97,0.97-0.97c0.54,0,0.97,0.43,0.97,0.97v40.66     C32.96,52.08,32.53,52.51,31.99,52.51z"/></g></g><g><g><g><path d="M25.18,16.67h-13.4c-0.54,0-0.97-0.43-0.97-0.97c0-0.54,0.43-0.97,0.97-0.97h13.4c0.54,0,0.97,0.43,0.97,0.97      C26.15,16.23,25.72,16.67,25.18,16.67z"/></g><g><path d="M25.18,27.25h-13.4c-0.54,0-0.97-0.43-0.97-0.97c0-0.54,0.43-0.97,0.97-0.97h13.4c0.54,0,0.97,0.43,0.97,0.97      C26.15,26.81,25.72,27.25,25.18,27.25z"/></g><g><path d="M25.18,37.82h-13.4c-0.54,0-0.97-0.43-0.97-0.97s0.43-0.97,0.97-0.97h13.4c0.54,0,0.97,0.43,0.97,0.97      S25.72,37.82,25.18,37.82z"/></g></g><g><g><path d="M52.22,16.67h-13.4c-0.54,0-0.97-0.43-0.97-0.97c0-0.54,0.43-0.97,0.97-0.97h13.4c0.54,0,0.97,0.43,0.97,0.97      C53.19,16.23,52.75,16.67,52.22,16.67z"/></g><g><path d="M52.22,27.25h-13.4c-0.54,0-0.97-0.43-0.97-0.97c0-0.54,0.43-0.97,0.97-0.97h13.4c0.54,0,0.97,0.43,0.97,0.97      C53.19,26.81,52.75,27.25,52.22,27.25z"/></g><g><path d="M52.22,37.82h-13.4c-0.54,0-0.97-0.43-0.97-0.97s0.43-0.97,0.97-0.97h13.4c0.54,0,0.97,0.43,0.97,0.97      S52.75,37.82,52.22,37.82z"/></g></g></g><g><path d="M33.37,59.26h-2.74c-2.43,0-4.46-1.74-4.91-4.04H0.97C0.43,55.22,0,54.79,0,54.25V11.58c0-0.54,0.43-0.97,0.97-0.97h5.88    c0.54,0,0.97,0.43,0.97,0.97c0,0.54-0.43,0.97-0.97,0.97H1.94v40.73h24.65c0.54,0,0.97,0.43,0.97,0.97c0,1.69,1.38,3.07,3.07,3.07    h2.74c1.69,0,3.07-1.38,3.07-3.07c0-0.54,0.43-0.97,0.97-0.97h24.65V12.55h-4.91c-0.54,0-0.97-0.43-0.97-0.97    c0-0.54,0.43-0.97,0.97-0.97h5.88c0.54,0,0.97,0.43,0.97,0.97v42.67c0,0.54-0.43,0.97-0.97,0.97H38.28    C37.83,57.52,35.8,59.26,33.37,59.26z"/></g></g></svg>



