<svg xmlns="http://www.w3.org/2000/svg" xmlns:xlink="http://www.w3.org/1999/xlink" fill="#fff" viewBox="0 0 100 125" version="1.1" x="0px" y="0px"><title>Product</title><desc>Created with Sketch.</desc><g stroke="none" stroke-width="1" fill="none" fill-rule="evenodd"><g fill-rule="nonzero" fill="#fff"><path d="M48.0185547,20 L84,20 L84,38 L81,38 L81,79 L19,79 L19,38 L16,38 L16,20 L27.5,20 L27.5,17.5 L48.0185547,17.5 L48.0185547,20 Z M27.5,23 L19,23 L19,35 L27.5,35 L27.5,23 Z M48.0185547,23 L48.0185547,35 L81,35 L81,23 L48.0185547,23 Z M27.5,38 L22,38 L22,76 L78,76 L78,38 L48.0185547,38 L48.0185547,55.1505612 L37.9465135,48.4336389 L27.5,55.0793148 L27.5,38 Z M30.5,49.6152245 L37.9851271,44.8534704 L45.0185547,49.5439781 L45.0185547,20.5 L30.5,20.5 L30.5,49.6152245 Z"/></g></g></svg>