<svg xmlns="http://www.w3.org/2000/svg" xmlns:xlink="http://www.w3.org/1999/xlink" xml:space="preserve" style="shape-rendering:geometricPrecision;text-rendering:geometricPrecision;image-rendering:optimizeQuality;" viewBox="0 0 173.397 216.74624999999997" x="0px" y="0px" fill="#fff" fill-rule="evenodd" clip-rule="evenodd"><defs><style type="text/css">
   
    
   
  </style></defs><g><g><path class="fil0" d="M86.7056 32.0836c-23.3337,0 -42.3149,18.984 -42.3149,42.3176 0,13.6053 3.9353,18.6127 8.4824,24.4058 5.3815,6.8512 11.4722,14.6134 11.4722,37.961 0,7.6328 6.2854,16.9509 13.6275,16.9509l17.4655 0c7.3422,0 13.6275,-9.3181 13.6275,-16.9509 0,-23.3476 6.0907,-31.1098 11.4722,-37.961 4.5471,-5.7931 8.4824,-10.8005 8.4824,-24.4058 0,-23.3336 -18.9812,-42.3176 -42.3148,-42.3176zm8.7327 124.321l-17.4655 0c-9.0387,0 -16.3113,-10.7408 -16.3113,-19.6361 0,-22.4214 -5.5484,-29.4772 -10.902,-36.2993 -4.6584,-5.9307 -9.0525,-11.5362 -9.0525,-26.0675 0,-24.8118 20.1909,-45.0028 44.9986,-45.0028 24.8076,0 44.9986,20.191 44.9986,45.0028 0,14.5356 -4.3942,20.1368 -9.0526,26.0675 -5.3676,6.8221 -10.902,13.8779 -10.902,36.2993 0,8.8953 -7.2726,19.6361 -16.3113,19.6361z"/><path class="fil0" d="M86.7056 163.237c-4.5055,0 -8.1766,-3.6641 -8.1766,-8.1751 0,-0.7412 0.598,-1.3433 1.3489,-1.3433 0.7369,0 1.3349,0.6021 1.3349,1.3433 0,3.0272 2.4613,5.4899 5.4928,5.4899 3.0314,0 5.4927,-2.4627 5.4927,-5.4899 0,-0.7412 0.5979,-1.3433 1.3349,-1.3433 0.7509,0 1.3488,0.6021 1.3488,1.3433 0,4.511 -3.671,8.1751 -8.1764,8.1751z"/><path class="fil0" d="M111.68 121.942l-49.963 0c-0.737,0 -1.3349,-0.598 -1.3349,-1.3433 0,-0.7412 0.5979,-1.3392 1.3349,-1.3392l49.963 0c0.7509,0 1.3488,0.598 1.3488,1.3392 0,0.7453 -0.5979,1.3433 -1.3488,1.3433z"/><path class="fil0" d="M110.595 131.204l-47.7936 0c-0.737,0 -1.335,-0.6021 -1.335,-1.3433 0,-0.7412 0.598,-1.3418 1.335,-1.3418l47.7936 0c0.751,0 1.3488,0.6006 1.3488,1.3418 0,0.7412 -0.5978,1.3433 -1.3488,1.3433z"/><path class="fil0" d="M110.234 140.464l-47.0566 0c-0.737,0 -1.335,-0.598 -1.335,-1.3433 0,-0.7412 0.598,-1.3433 1.335,-1.3433l47.0566 0c0.7371,0 1.335,0.6021 1.335,1.3433 0,0.7453 -0.5979,1.3433 -1.335,1.3433z"/><path class="fil0" d="M106.465 149.727l-39.5199 0c-0.737,0 -1.3488,-0.6021 -1.3488,-1.3433 0,-0.7412 0.6118,-1.3433 1.3488,-1.3433l39.5199 0c0.7369,0 1.3349,0.6021 1.3349,1.3433 0,0.7412 -0.598,1.3433 -1.3349,1.3433z"/><path class="fil0" d="M92.3791 121.946c-0.5007,0 -0.9873,-0.2906 -1.2099,-0.7843 -0.0834,-0.1848 -2.0719,-4.5972 -1.5991,-11.6751 0.3616,-5.5289 2.3639,-13.6887 9.3445,-22.9137 -3.9074,1.1542 -8.6353,1.2794 -12.4316,-1.8703 -3.6989,3.0842 -8.2043,3.0356 -11.9449,1.944 6.9111,9.2027 8.8023,17.3431 9.0804,22.8651 0.3476,7.0807 -1.7521,11.4929 -1.8494,11.6751 -0.3199,0.6675 -1.1264,0.9442 -1.7939,0.6216 -0.6674,-0.3254 -0.9456,-1.125 -0.6118,-1.7939 0.0138,-0.0417 1.9189,-4.0979 1.5574,-10.539 -0.3337,-5.9655 -2.7255,-15.2628 -12.2509,-25.7004 -0.4728,-0.5062 -0.4728,-1.2793 -0.0278,-1.7938 0.4589,-0.5132 1.2238,-0.6049 1.7939,-0.2087 0.3615,0.2587 9.1499,6.2896 15.0737,0.1642 0.2503,-0.2629 0.5979,-0.4089 0.9733,-0.4089 0.3616,0 0.7092,0.146 0.9595,0.4089 5.9655,6.1671 15.4631,-0.1155 15.5605,-0.178 0.5561,-0.3824 1.321,-0.2809 1.766,0.2336 0.4449,0.5131 0.431,1.2793 -0.0279,1.7827 -18.2858,20.0227 -11.2079,36.1031 -11.1384,36.2645 0.306,0.6744 0.014,1.4712 -0.6535,1.7799 -0.1808,0.0834 -0.3755,0.1265 -0.5701,0.1265z"/><path class="fil0" d="M86.7056 25.217c-0.7371,0 -1.3489,-0.6021 -1.3489,-1.3433l0 -12.3704c0,-0.7412 0.6118,-1.3433 1.3489,-1.3433 0.7369,0 1.3349,0.6021 1.3349,1.3433l0 12.3704c0,0.7412 -0.598,1.3433 -1.3349,1.3433z"/><path class="fil0" d="M112.167 32.0419c-0.2226,0 -0.445,-0.0584 -0.6675,-0.1822 -0.6397,-0.3698 -0.8621,-1.1917 -0.4867,-1.8313l6.188 -10.7143c0.3616,-0.6425 1.182,-0.8636 1.8355,-0.4923 0.6397,0.374 0.8622,1.1917 0.4867,1.8355l-6.1879 10.7129c-0.2504,0.4311 -0.6954,0.6717 -1.1681,0.6717z"/><path class="fil0" d="M130.828 50.6866c-0.4728,0 -0.9178,-0.2407 -1.1681,-0.6717 -0.3754,-0.6424 -0.1529,-1.4614 0.4867,-1.8313l10.7213 -6.1867c0.6396,-0.3699 1.46,-0.1502 1.8216,0.4895 0.3755,0.6438 0.153,1.4656 -0.4866,1.8355l-10.7074 6.1867c-0.2086,0.1223 -0.445,0.178 -0.6675,0.178z"/><path class="fil0" d="M150.018 76.1603l-12.376 0c-0.737,0 -1.335,-0.6022 -1.335,-1.3433 0,-0.7412 0.598,-1.3433 1.335,-1.3433l12.376 0c0.737,0 1.335,0.6021 1.335,1.3433 0,0.7411 -0.598,1.3433 -1.335,1.3433z"/><path class="fil0" d="M35.7553 76.1603l-12.3621 0c-0.7509,0 -1.3488,-0.6022 -1.3488,-1.3433 0,-0.7412 0.5979,-1.3433 1.3488,-1.3433l12.3621 0c0.7509,0 1.3488,0.6021 1.3488,1.3433 0,0.7411 -0.5979,1.3433 -1.3488,1.3433z"/><path class="fil0" d="M42.583 50.6866c-0.2226,0 -0.459,-0.0557 -0.6675,-0.178l-10.7212 -6.1867c-0.6397,-0.3699 -0.8483,-1.1917 -0.4868,-1.8355 0.3755,-0.6397 1.196,-0.8594 1.8356,-0.4895l10.7212 6.1867c0.6397,0.3699 0.8483,1.1889 0.4868,1.8313 -0.2504,0.431 -0.7092,0.6717 -1.1681,0.6717z"/><path class="fil0" d="M61.2304 32.0419c-0.4588,0 -0.9178,-0.2406 -1.1542,-0.6717l-6.1879 -10.7129c-0.3755,-0.6438 -0.153,-1.4656 0.4867,-1.8355 0.6396,-0.3713 1.4601,-0.1502 1.8355,0.4923l6.188 10.7143c0.3616,0.6396 0.1529,1.4615 -0.5006,1.8313 -0.2086,0.1238 -0.4311,0.1822 -0.6675,0.1822z"/></g></g></svg>