<svg xmlns="http://www.w3.org/2000/svg" xmlns:xlink="http://www.w3.org/1999/xlink" xml:space="preserve" version="1.1" fill="#fff" style="shape-rendering:geometricPrecision;text-rendering:geometricPrecision;image-rendering:optimizeQuality;" viewBox="0 0 1707 2133.75" x="0px" y="0px" fill-rule="evenodd" clip-rule="evenodd"><defs><style type="text/css">
   
    
   
  </style></defs><g><path class="fil0" d="M1561 1416l-247 0c-26,0 -26,-40 0,-40l247 0c21,0 39,-17 39,-39l0 -1149c0,-48 -56,-39 -92,-39 -27,0 -27,-40 0,-40l53 0c44,0 79,36 79,79l0 1149c0,44 -35,79 -79,79zm-1197 0l-219 0c-43,0 -78,-35 -78,-79l0 -1149c0,-43 35,-79 78,-79 35,0 74,-7 74,20 0,28 -39,20 -74,20 -21,0 -38,18 -38,39l0 1149c0,22 17,39 38,39l219 0c26,0 26,40 0,40zm1049 -1267l-148 0c-27,0 -27,-40 0,-40l148 0c26,0 26,40 0,40zm-243 0l-148 0c-26,0 -26,-40 0,-40l148 0c26,0 27,40 0,40zm-243 0l-148 0c-26,0 -26,-40 0,-40l148 0c27,0 27,40 0,40zm-242 0l-149 0c-26,0 -26,-40 0,-40l149 0c26,0 26,40 0,40zm-243 0l-148 0c-27,0 -27,-40 0,-40l148 0c26,0 26,40 0,40z"/><path class="fil0" d="M1620 392l-1533 0c-27,0 -27,-40 0,-40l1533 0c26,0 27,40 0,40z"/><path class="fil0" d="M246 258c-37,0 -67,-30 -67,-67l0 -124c0,-88 135,-88 135,0l0 124c0,37 -31,67 -68,67zm0 -218c-15,0 -27,12 -27,27l0 124c0,36 55,36 55,0l0 -124c0,-15 -13,-27 -28,-27z"/><path class="fil0" d="M489 258c-37,0 -67,-30 -67,-67l0 -124c0,-88 134,-88 134,0l0 124c0,37 -30,67 -67,67zm0 -218c-15,0 -27,12 -27,27l0 124c0,36 54,36 54,0l0 -124c0,-15 -12,-27 -27,-27z"/><path class="fil0" d="M732 258c-37,0 -67,-30 -67,-67l0 -124c0,-88 134,-88 134,0l0 124c0,37 -30,67 -67,67zm0 -218c-15,0 -27,12 -27,27l0 124c0,36 54,36 54,0l0 -124c0,-15 -12,-27 -27,-27z"/><path class="fil0" d="M975 258c-37,0 -68,-30 -68,-67l0 -124c0,-88 135,-88 135,0l0 124c0,37 -30,67 -67,67zm0 -218c-15,0 -28,12 -28,27l0 124c0,36 55,36 55,0l0 -124c0,-15 -12,-27 -27,-27z"/><path class="fil0" d="M1217 258c-37,0 -67,-30 -67,-67l0 -124c0,-88 135,-88 135,0l0 124c0,37 -30,67 -68,67zm0 -218c-15,0 -27,12 -27,27l0 124c0,36 55,36 55,0l0 -124c0,-15 -12,-27 -28,-27z"/><path class="fil0" d="M1460 258c-37,0 -67,-30 -67,-67l0 -124c0,-88 134,-88 134,0l0 124c0,37 -30,67 -67,67zm0 -218c-15,0 -27,12 -27,27l0 124c0,36 55,36 55,0l0 -124c0,-15 -13,-27 -28,-27z"/><path class="fil0" d="M1205 1496l-842 0c-11,0 -20,-9 -20,-20l0 -73c0,-52 42,-93 93,-93l774 0 174 -175c31,-31 80,-31 110,0 27,26 60,49 41,69 -34,34 -262,265 -281,277 -14,10 -31,15 -49,15zm-822 -40l822 0c15,0 27,-6 38,-17l250 -249c-19,-19 -49,-58 -80,-27l-181 181c-4,4 -9,6 -14,6l-782 0c-29,0 -53,23 -53,53l0 53 0 0z"/><path class="fil0" d="M1434 1060c-3,0 -7,0 -10,-2l-518 -300c-10,-5 -13,-17 -8,-27 68,-118 248,-142 401,-54 152,88 221,255 153,373 -4,7 -11,10 -18,10zm-490 -326l482 278c41,-97 -22,-228 -147,-301 -126,-72 -271,-61 -335,23z"/><path class="fil0" d="M1293 979c-16,0 -25,-17 -18,-30 57,-98 58,-206 4,-238 -55,-31 -149,24 -205,122 -13,22 -48,2 -34,-20 69,-120 183,-180 258,-137 76,44 81,172 12,293 -4,6 -10,10 -17,10z"/><path class="fil0" d="M921 1350c-15,0 -25,-17 -17,-30l254 -439c13,-23 47,-3 34,20l-253 439c-4,6 -11,10 -18,10z"/><path class="fil0" d="M467 1706c-29,0 -70,6 -80,-7 -4,-5 -5,-12 -4,-18l60 -211c6,-22 44,-14 84,-14 13,0 22,13 19,25l-59 211c-3,9 -11,14 -20,14zm-38 -39l23 0 48 -171 -23 0 -48 171z"/><path class="fil0" d="M1238 1706c-40,0 -77,8 -84,-14l-59 -211c-3,-12 6,-25 20,-25 40,0 77,-8 84,14l59 211c3,13 -6,25 -20,25zm-49 -39l23 0 -48 -171 -23 0 48 171z"/><path class="fil0" d="M513 920c-73,0 -132,-59 -132,-132 0,-72 59,-131 132,-131 72,0 131,59 131,131 0,73 -59,132 -131,132zm0 -223c-121,0 -121,183 0,183 120,0 120,-183 0,-183z"/><path class="fil0" d="M513 614c-28,0 -20,-38 -20,-73 0,-26 40,-26 40,0 0,35 7,73 -20,73z"/><path class="fil0" d="M609 640c-15,0 -24,-16 -17,-30 17,-30 31,-67 54,-53 24,13 -2,44 -19,73 -4,7 -11,10 -18,10z"/><path class="fil0" d="M681 712c-21,0 -28,-27 -10,-38 30,-17 59,-43 73,-19 14,23 -23,37 -53,54 -4,2 -7,3 -10,3z"/><path class="fil0" d="M760 808c-35,0 -73,8 -73,-20 0,-27 38,-20 73,-20 26,0 26,40 0,40z"/><path class="fil0" d="M727 932c-10,0 -44,-22 -56,-29 -23,-13 -3,-48 20,-35 29,17 67,31 53,54 -4,7 -10,10 -17,10z"/><path class="fil0" d="M636 1023c-18,0 -29,-30 -44,-56 -13,-23 22,-43 35,-20 17,29 43,60 19,73 -3,2 -6,3 -10,3z"/><path class="fil0" d="M513 1056c-28,0 -20,-39 -20,-74 0,-26 40,-26 40,0 0,35 7,74 -20,74z"/><path class="fil0" d="M389 1023c-16,0 -25,-17 -18,-30 18,-30 31,-67 54,-54 24,14 -2,44 -19,74 -4,6 -10,10 -17,10z"/><path class="fil0" d="M298 932c-20,0 -28,-27 -10,-37 30,-18 60,-43 74,-20 14,24 -24,37 -54,55 -3,1 -6,2 -10,2z"/><path class="fil0" d="M319 808c-35,0 -74,8 -74,-20 0,-27 39,-20 74,-20 26,0 26,40 0,40z"/><path class="fil0" d="M345 712c-10,0 -44,-22 -57,-30 -22,-13 -3,-48 20,-35 30,18 67,31 54,55 -4,6 -11,10 -17,10z"/><path class="fil0" d="M416 640c-18,0 -29,-30 -45,-56 -13,-22 22,-43 35,-20 17,30 43,60 20,74 -4,2 -7,2 -10,2z"/></g></svg>